<svg width="71" height="69" viewBox="0 0 71 69" fill="none" xmlns="http://www.w3.org/2000/svg">
<path d="M64 19L49.4909 8.1182C48.5293 7.39697 47.34 7.04632 46.1409 7.13046L20.5932 8.92328C19.873 8.97383 19.1722 9.17977 18.5391 9.52695L9.55791 14.4521C6.72371 16.0064 6.08691 19.801 8.25848 22.1952L20.2622 35.4301C22.0693 37.4226 25.1289 37.6283 27.1865 35.8956L37.9468 26.8342C40.3231 24.8331 43.9298 25.4606 45.4907 28.1467L57.9858 49.65C60.2166 53.4891 56.7096 58.1145 52.4107 57.0028L37.2502 53.082C35.8234 52.7129 34.3064 52.9922 33.1046 53.8451L23.4499 60.6969C21.2484 62.2592 18.2042 61.7919 16.5727 59.6413L8.5 49" stroke="#529BF5" stroke-width="13" stroke-linecap="round"/>
</svg>
