<svg width="157" height="36" viewBox="0 0 157 36" fill="none" xmlns="http://www.w3.org/2000/svg">
<g clip-path="url(#clip0)">
<g clip-path="url(#clip1)">
<path fill-rule="evenodd" clip-rule="evenodd" d="M3.65328 6.8495C4.81775 5.37747 6.70854 4.68157 8.54946 5.0475C10.5557 5.44628 12.6705 4.40929 13.5648 2.69127C14.4257 1.03743 16.1353 1.43051e-06 17.9999 0C19.8644 -1.43051e-06 21.574 1.03742 22.4349 2.69126C23.3293 4.4093 25.444 5.44628 27.4503 5.0475C29.2912 4.68157 31.182 5.37746 32.3464 6.8495C33.5109 8.32153 33.7529 10.3217 32.973 12.029C32.1792 13.7669 32.6713 15.9692 34.1899 17.2275C35.6405 18.4293 36.2924 20.3444 35.8764 22.1817C35.4605 24.0189 34.0473 25.4664 32.2205 25.9263C30.2498 26.4224 28.8328 28.2349 28.7837 30.1294C28.7354 31.9971 27.6497 33.6821 25.969 34.498C24.2882 35.3139 22.2927 35.1247 20.7953 34.0074C19.1896 32.8093 16.8101 32.8093 15.2044 34.0074C13.707 35.1247 11.7115 35.3139 10.0308 34.498C8.34997 33.6821 7.26434 31.9971 7.21599 30.1294C7.16695 28.2349 5.74989 26.4224 3.77918 25.9263C1.95245 25.4664 0.53922 24.0189 0.123272 22.1817C-0.292676 20.3444 0.35926 18.4293 1.80978 17.2275C3.32844 15.9692 3.82051 13.7669 3.02667 12.029C2.24683 10.3217 2.48881 8.32154 3.65328 6.8495ZM7.57467 9.95156C8.32156 11.5867 8.55077 13.3722 8.3127 15.0903C8.23363 15.6609 8.10304 16.2241 7.92274 16.7719C7.38077 18.4185 6.38977 19.926 4.99986 21.0776C6.7494 21.5181 8.29824 22.4446 9.50812 23.6862C9.92313 24.1121 10.2983 24.5751 10.6279 25.0683C11.5927 26.5114 12.1681 28.213 12.2143 30C13.6459 28.9318 15.3347 28.3161 17.0628 28.153C17.6858 28.0941 18.3139 28.0941 18.937 28.153C20.665 28.3161 22.3538 28.9318 23.7854 30C23.8317 28.213 24.4071 26.5114 25.3718 25.0683C25.7015 24.5751 26.0766 24.1121 26.4916 23.6862C27.7015 22.4446 29.2503 21.5181 30.9999 21.0776C29.6099 19.926 28.6189 18.4185 28.077 16.7719C27.8967 16.2241 27.7661 15.6609 27.687 15.0903C27.4489 13.3722 27.6782 11.5867 28.4251 9.95156C26.6638 10.3017 24.8698 10.1331 23.24 9.53938C22.6607 9.32833 22.1021 9.06356 21.573 8.74927C20.0802 7.8624 18.823 6.5812 17.9999 5C17.1767 6.5812 15.9195 7.8624 14.4267 8.74927C13.8977 9.06356 13.3391 9.32833 12.7597 9.53938C11.1299 10.1331 9.33595 10.3016 7.57467 9.95156Z" fill="#333333"/>
</g>
<path d="M48.3066 22.1675C48.4434 23.1538 48.7119 23.8911 49.1123 24.3794C49.8447 25.2681 51.0996 25.7124 52.877 25.7124C53.9414 25.7124 54.8057 25.5952 55.4697 25.3608C56.7295 24.9116 57.3594 24.0767 57.3594 22.856C57.3594 22.1431 57.0469 21.5913 56.4219 21.2007C55.7969 20.8198 54.8154 20.4829 53.4775 20.1899L51.1924 19.6772C48.9463 19.1694 47.3936 18.6177 46.5342 18.022C45.0791 17.0259 44.3516 15.4683 44.3516 13.3491C44.3516 11.4155 45.0547 9.80908 46.4609 8.52979C47.8672 7.25049 49.9326 6.61084 52.6572 6.61084C54.9326 6.61084 56.8711 7.21631 58.4727 8.42725C60.084 9.62842 60.9287 11.3765 61.0068 13.6714H56.6709C56.5928 12.3726 56.0264 11.4497 54.9717 10.9028C54.2686 10.5415 53.3945 10.3608 52.3496 10.3608C51.1875 10.3608 50.2598 10.5952 49.5664 11.064C48.873 11.5327 48.5264 12.187 48.5264 13.0269C48.5264 13.7983 48.8682 14.3745 49.5518 14.7554C49.9912 15.0093 50.9287 15.3071 52.3643 15.6489L56.085 16.5425C57.7158 16.9331 58.9463 17.4556 59.7764 18.1099C61.0654 19.1255 61.71 20.5952 61.71 22.519C61.71 24.4917 60.9531 26.1323 59.4395 27.4409C57.9355 28.7397 55.8066 29.3892 53.0527 29.3892C50.2402 29.3892 48.0283 28.7495 46.417 27.4702C44.8057 26.1812 44 24.4136 44 22.1675H48.3066Z" fill="#333333"/>
<path d="M67.673 12.8657V22.4897C67.673 23.3979 67.7805 24.0815 67.9953 24.5405C68.3762 25.3511 69.1232 25.7563 70.2365 25.7563C71.6623 25.7563 72.6389 25.1802 73.1662 24.0278C73.4396 23.4028 73.5764 22.5776 73.5764 21.5522V12.8657H77.8098V28.8325H73.7521V26.5767C73.7131 26.6255 73.6154 26.772 73.4592 27.0161C73.3029 27.2603 73.1174 27.4751 72.9025 27.6606C72.2482 28.2466 71.6135 28.647 70.9982 28.8618C70.3928 29.0767 69.6799 29.1841 68.8596 29.1841C66.4963 29.1841 64.9045 28.3345 64.0842 26.6353C63.6252 25.6978 63.3957 24.3159 63.3957 22.4897V12.8657H67.673Z" fill="#333333"/>
<path d="M98.4945 12.5142C99.1977 12.5142 99.891 12.6509 100.575 12.9243C101.258 13.1978 101.878 13.6763 102.435 14.3599C102.884 14.9165 103.187 15.6001 103.343 16.4106C103.441 16.9478 103.49 17.7339 103.49 18.769L103.46 28.8325H99.183V18.6665C99.183 18.061 99.0854 17.563 98.89 17.1724C98.5189 16.4302 97.8354 16.0591 96.8393 16.0591C95.6869 16.0591 94.891 16.5376 94.4516 17.4946C94.227 18.0024 94.1146 18.6128 94.1146 19.3257V28.8325H89.9105V19.3257C89.9105 18.3784 89.8129 17.6899 89.6176 17.2603C89.266 16.4888 88.5775 16.103 87.5521 16.103C86.3607 16.103 85.56 16.4888 85.1498 17.2603C84.9252 17.6997 84.8129 18.354 84.8129 19.2231V28.8325H80.5795V12.895H84.6371V15.2241C85.1547 14.394 85.643 13.8032 86.102 13.4517C86.9125 12.8267 87.9623 12.5142 89.2514 12.5142C90.4721 12.5142 91.4584 12.7827 92.2104 13.3198C92.8158 13.8179 93.2748 14.4575 93.5873 15.2388C94.1342 14.3013 94.8129 13.6128 95.6234 13.1733C96.4828 12.7339 97.4398 12.5142 98.4945 12.5142Z" fill="#333333"/>
<path d="M123.984 12.5142C124.687 12.5142 125.38 12.6509 126.064 12.9243C126.748 13.1978 127.368 13.6763 127.924 14.3599C128.374 14.9165 128.676 15.6001 128.833 16.4106C128.93 16.9478 128.979 17.7339 128.979 18.769L128.95 28.8325H124.672V18.6665C124.672 18.061 124.575 17.563 124.379 17.1724C124.008 16.4302 123.325 16.0591 122.329 16.0591C121.176 16.0591 120.38 16.5376 119.941 17.4946C119.716 18.0024 119.604 18.6128 119.604 19.3257V28.8325H115.4V19.3257C115.4 18.3784 115.302 17.6899 115.107 17.2603C114.755 16.4888 114.067 16.103 113.042 16.103C111.85 16.103 111.049 16.4888 110.639 17.2603C110.415 17.6997 110.302 18.354 110.302 19.2231V28.8325H106.069V12.895H110.127V15.2241C110.644 14.394 111.132 13.8032 111.591 13.4517C112.402 12.8267 113.452 12.5142 114.741 12.5142C115.962 12.5142 116.948 12.7827 117.7 13.3198C118.305 13.8179 118.764 14.4575 119.077 15.2388C119.624 14.3013 120.302 13.6128 121.113 13.1733C121.972 12.7339 122.929 12.5142 123.984 12.5142Z" fill="#333333"/>
<path d="M137.93 15.8833C136.964 15.8833 136.212 16.186 135.675 16.7915C135.147 17.397 134.815 18.2173 134.679 19.2524H141.168C141.099 18.1489 140.762 17.314 140.157 16.7476C139.561 16.1714 138.819 15.8833 137.93 15.8833ZM137.93 12.4409C139.259 12.4409 140.455 12.6899 141.519 13.188C142.584 13.686 143.463 14.4722 144.156 15.5464C144.781 16.4937 145.186 17.5923 145.372 18.8423C145.479 19.5747 145.523 20.6294 145.504 22.0063H134.576C134.635 23.6079 135.137 24.731 136.085 25.3755C136.661 25.7759 137.354 25.9761 138.165 25.9761C139.024 25.9761 139.722 25.7319 140.26 25.2437C140.553 24.98 140.811 24.6138 141.036 24.145H145.299C145.191 25.0923 144.698 26.0542 143.819 27.0308C142.452 28.5835 140.538 29.3599 138.077 29.3599C136.046 29.3599 134.254 28.7056 132.701 27.397C131.148 26.0884 130.372 23.9595 130.372 21.0103C130.372 18.2466 131.07 16.1274 132.467 14.6528C133.873 13.1782 135.694 12.4409 137.93 12.4409Z" fill="#333333"/>
<path d="M155.803 12.4849C155.881 12.4849 155.944 12.4897 155.993 12.4995C156.052 12.4995 156.174 12.5044 156.359 12.5142V16.7915C156.096 16.7622 155.861 16.7427 155.656 16.7329C155.451 16.7231 155.285 16.7183 155.158 16.7183C153.479 16.7183 152.351 17.2651 151.774 18.3589C151.452 18.9741 151.291 19.9214 151.291 21.2007V28.8325H147.087V12.8657H151.071V15.6489C151.716 14.5845 152.277 13.8569 152.756 13.4663C153.537 12.812 154.553 12.4849 155.803 12.4849Z" fill="#333333"/>
</g>
<defs>
<clipPath id="clip0">
<path d="M0 0H156.359V36H0V0Z" fill="white"/>
</clipPath>
<clipPath id="clip1">
<rect width="36" height="36" fill="white"/>
</clipPath>
</defs>
</svg>
